<mxfile host="Electron" modified="2024-03-17T19:21:18.198Z" agent="Mozilla/5.0 (Macintosh; Intel Mac OS X 10_15_7) AppleWebKit/537.36 (KHTML, like Gecko) draw.io/23.0.2 Chrome/120.0.6099.109 Electron/28.1.0 Safari/537.36" etag="a91aiLWqPlZO8xpT9BFC" version="23.0.2" type="device">
  <diagram name="Страница — 1" id="a1_RVUIByoCE8yIeBbWG">
    <mxGraphModel dx="1307" dy="861" grid="1" gridSize="10" guides="1" tooltips="1" connect="1" arrows="1" fold="1" page="1" pageScale="1" pageWidth="827" pageHeight="1169" math="0" shadow="0">
      <root>
        <mxCell id="0" />
        <mxCell id="1" parent="0" />
        <mxCell id="GUDZukZb5PEDSsjgiZrm-1" value="Проект&amp;nbsp; NOIR" style="text;html=1;strokeColor=none;fillColor=none;align=center;verticalAlign=middle;whiteSpace=wrap;rounded=0;fontSize=23;fontStyle=1" vertex="1" parent="1">
          <mxGeometry x="291" y="40" width="246" height="60" as="geometry" />
        </mxCell>
        <mxCell id="GUDZukZb5PEDSsjgiZrm-2" value="Архитектура нейросети" style="text;html=1;strokeColor=none;fillColor=none;align=center;verticalAlign=middle;whiteSpace=wrap;rounded=0;fontSize=16;fontStyle=1" vertex="1" parent="1">
          <mxGeometry x="330" y="130" width="180" height="30" as="geometry" />
        </mxCell>
        <mxCell id="GUDZukZb5PEDSsjgiZrm-3" value="Входные входные данные" style="rounded=0;whiteSpace=wrap;html=1;" vertex="1" parent="1">
          <mxGeometry x="100" y="260" width="120" height="60" as="geometry" />
        </mxCell>
        <mxCell id="GUDZukZb5PEDSsjgiZrm-4" value="" style="endArrow=classic;html=1;rounded=0;" edge="1" parent="1" source="GUDZukZb5PEDSsjgiZrm-3">
          <mxGeometry width="50" height="50" relative="1" as="geometry">
            <mxPoint x="390" y="450" as="sourcePoint" />
            <mxPoint x="160" y="440" as="targetPoint" />
          </mxGeometry>
        </mxCell>
        <mxCell id="GUDZukZb5PEDSsjgiZrm-5" value="разделение на подтипы" style="rounded=0;whiteSpace=wrap;html=1;" vertex="1" parent="1">
          <mxGeometry x="100" y="440" width="120" height="60" as="geometry" />
        </mxCell>
        <mxCell id="GUDZukZb5PEDSsjgiZrm-6" value="" style="endArrow=classic;html=1;rounded=0;" edge="1" parent="1" source="GUDZukZb5PEDSsjgiZrm-5">
          <mxGeometry width="50" height="50" relative="1" as="geometry">
            <mxPoint x="160" y="490" as="sourcePoint" />
            <mxPoint x="160" y="610" as="targetPoint" />
          </mxGeometry>
        </mxCell>
        <mxCell id="GUDZukZb5PEDSsjgiZrm-7" value="суммирование" style="rounded=0;whiteSpace=wrap;html=1;" vertex="1" parent="1">
          <mxGeometry x="100" y="610" width="120" height="60" as="geometry" />
        </mxCell>
        <mxCell id="GUDZukZb5PEDSsjgiZrm-8" value="" style="endArrow=classic;html=1;rounded=0;" edge="1" parent="1" source="GUDZukZb5PEDSsjgiZrm-7">
          <mxGeometry width="50" height="50" relative="1" as="geometry">
            <mxPoint x="160" y="660" as="sourcePoint" />
            <mxPoint x="160" y="780" as="targetPoint" />
          </mxGeometry>
        </mxCell>
        <mxCell id="GUDZukZb5PEDSsjgiZrm-9" value="стратегия действий" style="rounded=0;whiteSpace=wrap;html=1;" vertex="1" parent="1">
          <mxGeometry x="100" y="780" width="120" height="60" as="geometry" />
        </mxCell>
        <mxCell id="GUDZukZb5PEDSsjgiZrm-41" style="edgeStyle=orthogonalEdgeStyle;rounded=0;orthogonalLoop=1;jettySize=auto;html=1;" edge="1" parent="1" source="GUDZukZb5PEDSsjgiZrm-10" target="GUDZukZb5PEDSsjgiZrm-42">
          <mxGeometry relative="1" as="geometry">
            <mxPoint x="570" y="790" as="targetPoint" />
          </mxGeometry>
        </mxCell>
        <mxCell id="GUDZukZb5PEDSsjgiZrm-10" value="ВХОДНЫЕ ДАННЫЕ" style="shape=table;startSize=30;container=1;collapsible=0;childLayout=tableLayout;fixedRows=1;rowLines=0;fontStyle=0;strokeColor=default;fontSize=16;" vertex="1" parent="1">
          <mxGeometry x="480" y="180" width="180" height="540" as="geometry" />
        </mxCell>
        <mxCell id="GUDZukZb5PEDSsjgiZrm-11" value="" style="shape=tableRow;horizontal=0;startSize=0;swimlaneHead=0;swimlaneBody=0;top=0;left=0;bottom=0;right=0;collapsible=0;dropTarget=0;fillColor=none;points=[[0,0.5],[1,0.5]];portConstraint=eastwest;strokeColor=inherit;fontSize=16;" vertex="1" parent="GUDZukZb5PEDSsjgiZrm-10">
          <mxGeometry y="30" width="180" height="30" as="geometry" />
        </mxCell>
        <mxCell id="GUDZukZb5PEDSsjgiZrm-12" value="1" style="shape=partialRectangle;html=1;whiteSpace=wrap;connectable=0;fillColor=none;top=0;left=0;bottom=0;right=0;overflow=hidden;pointerEvents=1;strokeColor=inherit;fontSize=16;" vertex="1" parent="GUDZukZb5PEDSsjgiZrm-11">
          <mxGeometry width="40" height="30" as="geometry">
            <mxRectangle width="40" height="30" as="alternateBounds" />
          </mxGeometry>
        </mxCell>
        <mxCell id="GUDZukZb5PEDSsjgiZrm-13" value="КОЛ/ВО солдат" style="shape=partialRectangle;html=1;whiteSpace=wrap;connectable=0;fillColor=none;top=0;left=0;bottom=0;right=0;align=left;spacingLeft=6;overflow=hidden;strokeColor=inherit;fontSize=16;" vertex="1" parent="GUDZukZb5PEDSsjgiZrm-11">
          <mxGeometry x="40" width="140" height="30" as="geometry">
            <mxRectangle width="140" height="30" as="alternateBounds" />
          </mxGeometry>
        </mxCell>
        <mxCell id="GUDZukZb5PEDSsjgiZrm-14" value="" style="shape=tableRow;horizontal=0;startSize=0;swimlaneHead=0;swimlaneBody=0;top=0;left=0;bottom=0;right=0;collapsible=0;dropTarget=0;fillColor=none;points=[[0,0.5],[1,0.5]];portConstraint=eastwest;strokeColor=inherit;fontSize=16;" vertex="1" parent="GUDZukZb5PEDSsjgiZrm-10">
          <mxGeometry y="60" width="180" height="30" as="geometry" />
        </mxCell>
        <mxCell id="GUDZukZb5PEDSsjgiZrm-15" value="2" style="shape=partialRectangle;html=1;whiteSpace=wrap;connectable=0;fillColor=none;top=0;left=0;bottom=0;right=0;overflow=hidden;strokeColor=inherit;fontSize=16;" vertex="1" parent="GUDZukZb5PEDSsjgiZrm-14">
          <mxGeometry width="40" height="30" as="geometry">
            <mxRectangle width="40" height="30" as="alternateBounds" />
          </mxGeometry>
        </mxCell>
        <mxCell id="GUDZukZb5PEDSsjgiZrm-16" value="КОЛ/ВО техники" style="shape=partialRectangle;html=1;whiteSpace=wrap;connectable=0;fillColor=none;top=0;left=0;bottom=0;right=0;align=left;spacingLeft=6;overflow=hidden;strokeColor=inherit;fontSize=16;" vertex="1" parent="GUDZukZb5PEDSsjgiZrm-14">
          <mxGeometry x="40" width="140" height="30" as="geometry">
            <mxRectangle width="140" height="30" as="alternateBounds" />
          </mxGeometry>
        </mxCell>
        <mxCell id="GUDZukZb5PEDSsjgiZrm-17" value="" style="shape=tableRow;horizontal=0;startSize=0;swimlaneHead=0;swimlaneBody=0;top=0;left=0;bottom=0;right=0;collapsible=0;dropTarget=0;fillColor=none;points=[[0,0.5],[1,0.5]];portConstraint=eastwest;strokeColor=inherit;fontSize=16;" vertex="1" parent="GUDZukZb5PEDSsjgiZrm-10">
          <mxGeometry y="90" width="180" height="40" as="geometry" />
        </mxCell>
        <mxCell id="GUDZukZb5PEDSsjgiZrm-18" value="3" style="shape=partialRectangle;html=1;whiteSpace=wrap;connectable=0;fillColor=none;top=0;left=0;bottom=0;right=0;overflow=hidden;strokeColor=inherit;fontSize=16;" vertex="1" parent="GUDZukZb5PEDSsjgiZrm-17">
          <mxGeometry width="40" height="40" as="geometry">
            <mxRectangle width="40" height="40" as="alternateBounds" />
          </mxGeometry>
        </mxCell>
        <mxCell id="GUDZukZb5PEDSsjgiZrm-19" value="Скорость обслуживания" style="shape=partialRectangle;html=1;whiteSpace=wrap;connectable=0;fillColor=none;top=0;left=0;bottom=0;right=0;align=left;spacingLeft=6;overflow=hidden;strokeColor=inherit;fontSize=16;" vertex="1" parent="GUDZukZb5PEDSsjgiZrm-17">
          <mxGeometry x="40" width="140" height="40" as="geometry">
            <mxRectangle width="140" height="40" as="alternateBounds" />
          </mxGeometry>
        </mxCell>
        <mxCell id="GUDZukZb5PEDSsjgiZrm-20" value="4" style="shape=partialRectangle;html=1;whiteSpace=wrap;connectable=0;fillColor=none;top=0;left=0;bottom=0;right=0;overflow=hidden;strokeColor=inherit;fontSize=16;" vertex="1" parent="1">
          <mxGeometry x="480" y="330" width="40" height="30" as="geometry">
            <mxRectangle width="40" height="30" as="alternateBounds" />
          </mxGeometry>
        </mxCell>
        <mxCell id="GUDZukZb5PEDSsjgiZrm-21" value="Местность&amp;nbsp;" style="shape=partialRectangle;html=1;whiteSpace=wrap;connectable=0;fillColor=none;top=0;left=0;bottom=0;right=0;align=left;spacingLeft=6;overflow=hidden;strokeColor=inherit;fontSize=16;" vertex="1" parent="1">
          <mxGeometry x="520" y="330" width="140" height="30" as="geometry">
            <mxRectangle width="140" height="30" as="alternateBounds" />
          </mxGeometry>
        </mxCell>
        <mxCell id="GUDZukZb5PEDSsjgiZrm-23" value="5" style="shape=partialRectangle;html=1;whiteSpace=wrap;connectable=0;fillColor=none;top=0;left=0;bottom=0;right=0;overflow=hidden;strokeColor=inherit;fontSize=16;" vertex="1" parent="1">
          <mxGeometry x="480" y="360" width="40" height="30" as="geometry">
            <mxRectangle width="40" height="30" as="alternateBounds" />
          </mxGeometry>
        </mxCell>
        <mxCell id="GUDZukZb5PEDSsjgiZrm-24" value="Близость к противнику" style="shape=partialRectangle;html=1;whiteSpace=wrap;connectable=0;fillColor=none;top=0;left=0;bottom=0;right=0;align=left;spacingLeft=6;overflow=hidden;strokeColor=inherit;fontSize=16;" vertex="1" parent="1">
          <mxGeometry x="520" y="360" width="140" height="40" as="geometry">
            <mxRectangle width="140" height="30" as="alternateBounds" />
          </mxGeometry>
        </mxCell>
        <mxCell id="GUDZukZb5PEDSsjgiZrm-25" value="6" style="shape=partialRectangle;html=1;whiteSpace=wrap;connectable=0;fillColor=none;top=0;left=0;bottom=0;right=0;overflow=hidden;strokeColor=inherit;fontSize=16;" vertex="1" parent="1">
          <mxGeometry x="480" y="400" width="40" height="30" as="geometry">
            <mxRectangle width="40" height="30" as="alternateBounds" />
          </mxGeometry>
        </mxCell>
        <mxCell id="GUDZukZb5PEDSsjgiZrm-26" value="КОЛ/ВО доп/техники" style="shape=partialRectangle;html=1;whiteSpace=wrap;connectable=0;fillColor=none;top=0;left=0;bottom=0;right=0;align=left;spacingLeft=6;overflow=hidden;strokeColor=inherit;fontSize=16;" vertex="1" parent="1">
          <mxGeometry x="520" y="400" width="140" height="40" as="geometry">
            <mxRectangle width="140" height="30" as="alternateBounds" />
          </mxGeometry>
        </mxCell>
        <mxCell id="GUDZukZb5PEDSsjgiZrm-31" value="1" style="shape=partialRectangle;html=1;whiteSpace=wrap;connectable=0;fillColor=none;top=0;left=0;bottom=0;right=0;overflow=hidden;pointerEvents=1;strokeColor=inherit;fontSize=16;" vertex="1" parent="1">
          <mxGeometry x="480" y="440" width="40" height="30" as="geometry">
            <mxRectangle width="40" height="30" as="alternateBounds" />
          </mxGeometry>
        </mxCell>
        <mxCell id="GUDZukZb5PEDSsjgiZrm-32" value="КОЛ/ВО солдат противника" style="shape=partialRectangle;html=1;whiteSpace=wrap;connectable=0;fillColor=none;top=0;left=0;bottom=0;right=0;align=left;spacingLeft=6;overflow=hidden;strokeColor=inherit;fontSize=16;" vertex="1" parent="1">
          <mxGeometry x="520" y="440" width="140" height="40" as="geometry">
            <mxRectangle width="140" height="30" as="alternateBounds" />
          </mxGeometry>
        </mxCell>
        <mxCell id="GUDZukZb5PEDSsjgiZrm-33" value="2" style="shape=partialRectangle;html=1;whiteSpace=wrap;connectable=0;fillColor=none;top=0;left=0;bottom=0;right=0;overflow=hidden;strokeColor=inherit;fontSize=16;" vertex="1" parent="1">
          <mxGeometry x="480" y="480" width="40" height="30" as="geometry">
            <mxRectangle width="40" height="30" as="alternateBounds" />
          </mxGeometry>
        </mxCell>
        <mxCell id="GUDZukZb5PEDSsjgiZrm-34" value="КОЛ/ВО техники противника" style="shape=partialRectangle;html=1;whiteSpace=wrap;connectable=0;fillColor=none;top=0;left=0;bottom=0;right=0;align=left;spacingLeft=6;overflow=hidden;strokeColor=inherit;fontSize=16;" vertex="1" parent="1">
          <mxGeometry x="520" y="480" width="140" height="40" as="geometry">
            <mxRectangle width="140" height="30" as="alternateBounds" />
          </mxGeometry>
        </mxCell>
        <mxCell id="GUDZukZb5PEDSsjgiZrm-35" value="3" style="shape=partialRectangle;html=1;whiteSpace=wrap;connectable=0;fillColor=none;top=0;left=0;bottom=0;right=0;overflow=hidden;strokeColor=inherit;fontSize=16;" vertex="1" parent="1">
          <mxGeometry x="480" y="520" width="40" height="40" as="geometry">
            <mxRectangle width="40" height="40" as="alternateBounds" />
          </mxGeometry>
        </mxCell>
        <mxCell id="GUDZukZb5PEDSsjgiZrm-36" value="Скорость обслуживания" style="shape=partialRectangle;html=1;whiteSpace=wrap;connectable=0;fillColor=none;top=0;left=0;bottom=0;right=0;align=left;spacingLeft=6;overflow=hidden;strokeColor=inherit;fontSize=16;" vertex="1" parent="1">
          <mxGeometry x="520" y="520" width="140" height="40" as="geometry">
            <mxRectangle width="140" height="40" as="alternateBounds" />
          </mxGeometry>
        </mxCell>
        <mxCell id="GUDZukZb5PEDSsjgiZrm-37" value="4" style="shape=partialRectangle;html=1;whiteSpace=wrap;connectable=0;fillColor=none;top=0;left=0;bottom=0;right=0;overflow=hidden;strokeColor=inherit;fontSize=16;" vertex="1" parent="1">
          <mxGeometry x="480" y="560" width="40" height="30" as="geometry">
            <mxRectangle width="40" height="30" as="alternateBounds" />
          </mxGeometry>
        </mxCell>
        <mxCell id="GUDZukZb5PEDSsjgiZrm-38" value="Местность&amp;nbsp;" style="shape=partialRectangle;html=1;whiteSpace=wrap;connectable=0;fillColor=none;top=0;left=0;bottom=0;right=0;align=left;spacingLeft=6;overflow=hidden;strokeColor=inherit;fontSize=16;" vertex="1" parent="1">
          <mxGeometry x="520" y="560" width="140" height="30" as="geometry">
            <mxRectangle width="140" height="30" as="alternateBounds" />
          </mxGeometry>
        </mxCell>
        <mxCell id="GUDZukZb5PEDSsjgiZrm-39" value="6" style="shape=partialRectangle;html=1;whiteSpace=wrap;connectable=0;fillColor=none;top=0;left=0;bottom=0;right=0;overflow=hidden;strokeColor=inherit;fontSize=16;" vertex="1" parent="1">
          <mxGeometry x="480" y="590" width="40" height="30" as="geometry">
            <mxRectangle width="40" height="30" as="alternateBounds" />
          </mxGeometry>
        </mxCell>
        <mxCell id="GUDZukZb5PEDSsjgiZrm-40" value="КОЛ/ВО доп/техники противника" style="shape=partialRectangle;html=1;whiteSpace=wrap;connectable=0;fillColor=none;top=0;left=0;bottom=0;right=0;align=left;spacingLeft=6;overflow=hidden;strokeColor=inherit;fontSize=16;" vertex="1" parent="1">
          <mxGeometry x="520" y="590" width="140" height="40" as="geometry">
            <mxRectangle width="140" height="30" as="alternateBounds" />
          </mxGeometry>
        </mxCell>
        <mxCell id="GUDZukZb5PEDSsjgiZrm-43" style="edgeStyle=orthogonalEdgeStyle;rounded=0;orthogonalLoop=1;jettySize=auto;html=1;" edge="1" parent="1" source="GUDZukZb5PEDSsjgiZrm-42">
          <mxGeometry relative="1" as="geometry">
            <mxPoint x="350" y="1041" as="targetPoint" />
          </mxGeometry>
        </mxCell>
        <mxCell id="GUDZukZb5PEDSsjgiZrm-44" style="edgeStyle=orthogonalEdgeStyle;rounded=0;orthogonalLoop=1;jettySize=auto;html=1;" edge="1" parent="1" source="GUDZukZb5PEDSsjgiZrm-42">
          <mxGeometry relative="1" as="geometry">
            <mxPoint x="420" y="1160" as="targetPoint" />
          </mxGeometry>
        </mxCell>
        <mxCell id="GUDZukZb5PEDSsjgiZrm-45" style="edgeStyle=orthogonalEdgeStyle;rounded=0;orthogonalLoop=1;jettySize=auto;html=1;" edge="1" parent="1" source="GUDZukZb5PEDSsjgiZrm-42">
          <mxGeometry relative="1" as="geometry">
            <mxPoint x="480" y="1040" as="targetPoint" />
          </mxGeometry>
        </mxCell>
        <mxCell id="GUDZukZb5PEDSsjgiZrm-46" style="edgeStyle=orthogonalEdgeStyle;rounded=0;orthogonalLoop=1;jettySize=auto;html=1;" edge="1" parent="1" source="GUDZukZb5PEDSsjgiZrm-42">
          <mxGeometry relative="1" as="geometry">
            <mxPoint x="800" y="1360" as="targetPoint" />
          </mxGeometry>
        </mxCell>
        <mxCell id="GUDZukZb5PEDSsjgiZrm-47" style="edgeStyle=orthogonalEdgeStyle;rounded=0;orthogonalLoop=1;jettySize=auto;html=1;" edge="1" parent="1" source="GUDZukZb5PEDSsjgiZrm-42">
          <mxGeometry relative="1" as="geometry">
            <mxPoint x="720" y="1270" as="targetPoint" />
          </mxGeometry>
        </mxCell>
        <mxCell id="GUDZukZb5PEDSsjgiZrm-48" style="edgeStyle=orthogonalEdgeStyle;rounded=0;orthogonalLoop=1;jettySize=auto;html=1;" edge="1" parent="1" source="GUDZukZb5PEDSsjgiZrm-42">
          <mxGeometry relative="1" as="geometry">
            <mxPoint x="640" y="1130" as="targetPoint" />
          </mxGeometry>
        </mxCell>
        <mxCell id="GUDZukZb5PEDSsjgiZrm-55" style="edgeStyle=orthogonalEdgeStyle;rounded=0;orthogonalLoop=1;jettySize=auto;html=1;" edge="1" parent="1" source="GUDZukZb5PEDSsjgiZrm-42">
          <mxGeometry relative="1" as="geometry">
            <mxPoint x="270" y="1381" as="targetPoint" />
          </mxGeometry>
        </mxCell>
        <mxCell id="GUDZukZb5PEDSsjgiZrm-56" style="edgeStyle=orthogonalEdgeStyle;rounded=0;orthogonalLoop=1;jettySize=auto;html=1;" edge="1" parent="1" source="GUDZukZb5PEDSsjgiZrm-42">
          <mxGeometry relative="1" as="geometry">
            <mxPoint x="520" y="1440" as="targetPoint" />
          </mxGeometry>
        </mxCell>
        <mxCell id="GUDZukZb5PEDSsjgiZrm-57" style="edgeStyle=orthogonalEdgeStyle;rounded=0;orthogonalLoop=1;jettySize=auto;html=1;" edge="1" parent="1" source="GUDZukZb5PEDSsjgiZrm-42">
          <mxGeometry relative="1" as="geometry">
            <mxPoint x="970" y="1340" as="targetPoint" />
          </mxGeometry>
        </mxCell>
        <mxCell id="GUDZukZb5PEDSsjgiZrm-58" style="edgeStyle=orthogonalEdgeStyle;rounded=0;orthogonalLoop=1;jettySize=auto;html=1;" edge="1" parent="1" source="GUDZukZb5PEDSsjgiZrm-42">
          <mxGeometry relative="1" as="geometry">
            <mxPoint x="1130" y="1424" as="targetPoint" />
          </mxGeometry>
        </mxCell>
        <mxCell id="GUDZukZb5PEDSsjgiZrm-59" style="edgeStyle=orthogonalEdgeStyle;rounded=0;orthogonalLoop=1;jettySize=auto;html=1;" edge="1" parent="1" source="GUDZukZb5PEDSsjgiZrm-42">
          <mxGeometry relative="1" as="geometry">
            <mxPoint x="1050" y="1571" as="targetPoint" />
          </mxGeometry>
        </mxCell>
        <mxCell id="GUDZukZb5PEDSsjgiZrm-42" value="разделение на подтипы" style="rounded=0;whiteSpace=wrap;html=1;" vertex="1" parent="1">
          <mxGeometry x="510" y="790" width="120" height="60" as="geometry" />
        </mxCell>
        <mxCell id="GUDZukZb5PEDSsjgiZrm-49" value="КОЛ/ВО солдат" style="shape=partialRectangle;html=1;whiteSpace=wrap;connectable=0;fillColor=none;top=0;left=0;bottom=0;right=0;align=left;spacingLeft=6;overflow=hidden;strokeColor=inherit;fontSize=16;" vertex="1" parent="1">
          <mxGeometry x="550" y="1139" width="140" height="30" as="geometry">
            <mxRectangle width="140" height="30" as="alternateBounds" />
          </mxGeometry>
        </mxCell>
        <mxCell id="GUDZukZb5PEDSsjgiZrm-50" value="КОЛ/ВО техники" style="shape=partialRectangle;html=1;whiteSpace=wrap;connectable=0;fillColor=none;top=0;left=0;bottom=0;right=0;align=left;spacingLeft=6;overflow=hidden;strokeColor=inherit;fontSize=16;" vertex="1" parent="1">
          <mxGeometry x="650" y="1280" width="140" height="30" as="geometry">
            <mxRectangle width="140" height="30" as="alternateBounds" />
          </mxGeometry>
        </mxCell>
        <mxCell id="GUDZukZb5PEDSsjgiZrm-51" value="Скорость обслуживания" style="shape=partialRectangle;html=1;whiteSpace=wrap;connectable=0;fillColor=none;top=0;left=0;bottom=0;right=0;align=left;spacingLeft=6;overflow=hidden;strokeColor=inherit;fontSize=16;" vertex="1" parent="1">
          <mxGeometry x="740" y="1370" width="140" height="40" as="geometry">
            <mxRectangle width="140" height="40" as="alternateBounds" />
          </mxGeometry>
        </mxCell>
        <mxCell id="GUDZukZb5PEDSsjgiZrm-52" value="Местность&amp;nbsp;" style="shape=partialRectangle;html=1;whiteSpace=wrap;connectable=0;fillColor=none;top=0;left=0;bottom=0;right=0;align=left;spacingLeft=6;overflow=hidden;strokeColor=inherit;fontSize=16;" vertex="1" parent="1">
          <mxGeometry x="430" y="1060" width="140" height="30" as="geometry">
            <mxRectangle width="140" height="30" as="alternateBounds" />
          </mxGeometry>
        </mxCell>
        <mxCell id="GUDZukZb5PEDSsjgiZrm-53" value="Близость к противнику" style="shape=partialRectangle;html=1;whiteSpace=wrap;connectable=0;fillColor=none;top=0;left=0;bottom=0;right=0;align=left;spacingLeft=6;overflow=hidden;strokeColor=inherit;fontSize=16;" vertex="1" parent="1">
          <mxGeometry x="290" y="1050" width="140" height="40" as="geometry">
            <mxRectangle width="140" height="30" as="alternateBounds" />
          </mxGeometry>
        </mxCell>
        <mxCell id="GUDZukZb5PEDSsjgiZrm-54" value="КОЛ/ВО доп/техники" style="shape=partialRectangle;html=1;whiteSpace=wrap;connectable=0;fillColor=none;top=0;left=0;bottom=0;right=0;align=left;spacingLeft=6;overflow=hidden;strokeColor=inherit;fontSize=16;" vertex="1" parent="1">
          <mxGeometry x="350" y="1169" width="140" height="40" as="geometry">
            <mxRectangle width="140" height="30" as="alternateBounds" />
          </mxGeometry>
        </mxCell>
        <mxCell id="GUDZukZb5PEDSsjgiZrm-61" value="КОЛ/ВО солдат противника" style="shape=partialRectangle;html=1;whiteSpace=wrap;connectable=0;fillColor=none;top=0;left=0;bottom=0;right=0;align=left;spacingLeft=6;overflow=hidden;strokeColor=inherit;fontSize=16;" vertex="1" parent="1">
          <mxGeometry x="210" y="1400" width="140" height="40" as="geometry">
            <mxRectangle width="140" height="30" as="alternateBounds" />
          </mxGeometry>
        </mxCell>
        <mxCell id="GUDZukZb5PEDSsjgiZrm-62" value="КОЛ/ВО техники противника" style="shape=partialRectangle;html=1;whiteSpace=wrap;connectable=0;fillColor=none;top=0;left=0;bottom=0;right=0;align=left;spacingLeft=6;overflow=hidden;strokeColor=inherit;fontSize=16;" vertex="1" parent="1">
          <mxGeometry x="460" y="1460" width="140" height="40" as="geometry">
            <mxRectangle width="140" height="30" as="alternateBounds" />
          </mxGeometry>
        </mxCell>
        <mxCell id="GUDZukZb5PEDSsjgiZrm-63" value="Скорость обслуживания" style="shape=partialRectangle;html=1;whiteSpace=wrap;connectable=0;fillColor=none;top=0;left=0;bottom=0;right=0;align=left;spacingLeft=6;overflow=hidden;strokeColor=inherit;fontSize=16;" vertex="1" parent="1">
          <mxGeometry x="900" y="1360" width="140" height="40" as="geometry">
            <mxRectangle width="140" height="40" as="alternateBounds" />
          </mxGeometry>
        </mxCell>
        <mxCell id="GUDZukZb5PEDSsjgiZrm-64" value="Местность&amp;nbsp;" style="shape=partialRectangle;html=1;whiteSpace=wrap;connectable=0;fillColor=none;top=0;left=0;bottom=0;right=0;align=left;spacingLeft=6;overflow=hidden;strokeColor=inherit;fontSize=16;" vertex="1" parent="1">
          <mxGeometry x="990" y="1580" width="140" height="30" as="geometry">
            <mxRectangle width="140" height="30" as="alternateBounds" />
          </mxGeometry>
        </mxCell>
        <mxCell id="GUDZukZb5PEDSsjgiZrm-65" value="КОЛ/ВО доп/техники противника" style="shape=partialRectangle;html=1;whiteSpace=wrap;connectable=0;fillColor=none;top=0;left=0;bottom=0;right=0;align=left;spacingLeft=6;overflow=hidden;strokeColor=inherit;fontSize=16;" vertex="1" parent="1">
          <mxGeometry x="1070" y="1440" width="140" height="40" as="geometry">
            <mxRectangle width="140" height="30" as="alternateBounds" />
          </mxGeometry>
        </mxCell>
        <mxCell id="GUDZukZb5PEDSsjgiZrm-66" value="" style="shape=flexArrow;endArrow=classic;html=1;rounded=0;" edge="1" parent="1">
          <mxGeometry width="50" height="50" relative="1" as="geometry">
            <mxPoint x="640" y="780" as="sourcePoint" />
            <mxPoint x="690" y="730" as="targetPoint" />
          </mxGeometry>
        </mxCell>
        <mxCell id="GUDZukZb5PEDSsjgiZrm-67" value="НЕЙРОНЫ" style="text;html=1;strokeColor=none;fillColor=none;align=center;verticalAlign=middle;whiteSpace=wrap;rounded=0;" vertex="1" parent="1">
          <mxGeometry x="690" y="710" width="100" height="30" as="geometry" />
        </mxCell>
        <mxCell id="GUDZukZb5PEDSsjgiZrm-68" value="СУММИРОВАНИЕ" style="whiteSpace=wrap;html=1;aspect=fixed;" vertex="1" parent="1">
          <mxGeometry x="690" y="1700" width="200" height="200" as="geometry" />
        </mxCell>
        <mxCell id="GUDZukZb5PEDSsjgiZrm-69" value="" style="endArrow=classic;startArrow=classic;html=1;rounded=0;" edge="1" parent="1" target="GUDZukZb5PEDSsjgiZrm-68">
          <mxGeometry width="50" height="50" relative="1" as="geometry">
            <mxPoint x="300" y="1450" as="sourcePoint" />
            <mxPoint x="770" y="1580" as="targetPoint" />
          </mxGeometry>
        </mxCell>
        <mxCell id="GUDZukZb5PEDSsjgiZrm-70" value="" style="endArrow=classic;startArrow=classic;html=1;rounded=0;" edge="1" parent="1" target="GUDZukZb5PEDSsjgiZrm-68">
          <mxGeometry width="50" height="50" relative="1" as="geometry">
            <mxPoint x="530" y="1500" as="sourcePoint" />
            <mxPoint x="700" y="1739" as="targetPoint" />
          </mxGeometry>
        </mxCell>
        <mxCell id="GUDZukZb5PEDSsjgiZrm-71" value="" style="endArrow=classic;startArrow=classic;html=1;rounded=0;" edge="1" parent="1" target="GUDZukZb5PEDSsjgiZrm-68">
          <mxGeometry width="50" height="50" relative="1" as="geometry">
            <mxPoint x="790" y="1420" as="sourcePoint" />
            <mxPoint x="713" y="1710" as="targetPoint" />
          </mxGeometry>
        </mxCell>
        <mxCell id="GUDZukZb5PEDSsjgiZrm-72" value="" style="endArrow=classic;startArrow=classic;html=1;rounded=0;" edge="1" parent="1" target="GUDZukZb5PEDSsjgiZrm-68">
          <mxGeometry width="50" height="50" relative="1" as="geometry">
            <mxPoint x="930" y="1410" as="sourcePoint" />
            <mxPoint x="800" y="1710" as="targetPoint" />
          </mxGeometry>
        </mxCell>
        <mxCell id="GUDZukZb5PEDSsjgiZrm-73" value="" style="endArrow=classic;startArrow=classic;html=1;rounded=0;" edge="1" parent="1" target="GUDZukZb5PEDSsjgiZrm-68">
          <mxGeometry width="50" height="50" relative="1" as="geometry">
            <mxPoint x="1000" y="1610" as="sourcePoint" />
            <mxPoint x="836" y="1710" as="targetPoint" />
          </mxGeometry>
        </mxCell>
        <mxCell id="GUDZukZb5PEDSsjgiZrm-74" value="" style="endArrow=classic;startArrow=classic;html=1;rounded=0;" edge="1" parent="1" target="GUDZukZb5PEDSsjgiZrm-68">
          <mxGeometry width="50" height="50" relative="1" as="geometry">
            <mxPoint x="1080" y="1490" as="sourcePoint" />
            <mxPoint x="900" y="1720" as="targetPoint" />
          </mxGeometry>
        </mxCell>
        <mxCell id="GUDZukZb5PEDSsjgiZrm-75" value="" style="endArrow=classic;startArrow=classic;html=1;rounded=0;" edge="1" parent="1" target="GUDZukZb5PEDSsjgiZrm-68">
          <mxGeometry width="50" height="50" relative="1" as="geometry">
            <mxPoint x="690" y="1320" as="sourcePoint" />
            <mxPoint x="894" y="1710" as="targetPoint" />
          </mxGeometry>
        </mxCell>
        <mxCell id="GUDZukZb5PEDSsjgiZrm-76" value="" style="endArrow=classic;startArrow=classic;html=1;rounded=0;" edge="1" parent="1" target="GUDZukZb5PEDSsjgiZrm-68">
          <mxGeometry width="50" height="50" relative="1" as="geometry">
            <mxPoint x="380" y="1210" as="sourcePoint" />
            <mxPoint x="779" y="1710" as="targetPoint" />
          </mxGeometry>
        </mxCell>
        <mxCell id="GUDZukZb5PEDSsjgiZrm-77" value="" style="endArrow=classic;startArrow=classic;html=1;rounded=0;" edge="1" parent="1" target="GUDZukZb5PEDSsjgiZrm-68">
          <mxGeometry width="50" height="50" relative="1" as="geometry">
            <mxPoint x="330" y="1100" as="sourcePoint" />
            <mxPoint x="731" y="1710" as="targetPoint" />
          </mxGeometry>
        </mxCell>
        <mxCell id="GUDZukZb5PEDSsjgiZrm-78" value="" style="endArrow=classic;startArrow=classic;html=1;rounded=0;" edge="1" parent="1" target="GUDZukZb5PEDSsjgiZrm-68">
          <mxGeometry width="50" height="50" relative="1" as="geometry">
            <mxPoint x="610" y="1170" as="sourcePoint" />
            <mxPoint x="734" y="1710" as="targetPoint" />
          </mxGeometry>
        </mxCell>
        <mxCell id="GUDZukZb5PEDSsjgiZrm-79" value="" style="endArrow=classic;startArrow=classic;html=1;rounded=0;" edge="1" parent="1" target="GUDZukZb5PEDSsjgiZrm-68">
          <mxGeometry width="50" height="50" relative="1" as="geometry">
            <mxPoint x="480" y="1100" as="sourcePoint" />
            <mxPoint x="771" y="1710" as="targetPoint" />
          </mxGeometry>
        </mxCell>
        <mxCell id="GUDZukZb5PEDSsjgiZrm-80" value="" style="endArrow=classic;html=1;rounded=0;" edge="1" parent="1" source="GUDZukZb5PEDSsjgiZrm-68" target="GUDZukZb5PEDSsjgiZrm-81">
          <mxGeometry width="50" height="50" relative="1" as="geometry">
            <mxPoint x="790" y="2090" as="sourcePoint" />
            <mxPoint x="790" y="2250" as="targetPoint" />
          </mxGeometry>
        </mxCell>
        <mxCell id="GUDZukZb5PEDSsjgiZrm-81" value="СТРАТЕГИЯ" style="rounded=0;whiteSpace=wrap;html=1;" vertex="1" parent="1">
          <mxGeometry x="730" y="2220" width="120" height="60" as="geometry" />
        </mxCell>
      </root>
    </mxGraphModel>
  </diagram>
</mxfile>
